# xmcd
#
# Track frame offsets:
#	150
#	12866
#	26091
#	39818
#	50383
#	61286
#	72474
#	83232
#	99333
#	117074
#	130699
#	144163
#	157684
#	174651
#
# Disc length: 2865 seconds
#
# Revision: 1
# Processed by: cddbd v1.5.2PL0 Copyright (c) Steve Scherf et al.
# Submitted via: audiograbber 1.83.01
#
DISCID=a50b2f0e
DTITLE=Various Artist - Classic Country Music
DYEAR=2008
DGENRE=Country
TTITLE0=Hank Snow - I've Been Everywhere
TTITLE1=Hank Williams - Jambalaya (On The Bayou)
TTITLE2=Lefty Frizzell - If You've Got The Money, I've Got The Time
TTITLE3=George Jones - Why Baby Why
TTITLE4=Buck Owens - Act Naturally
TTITLE5=Stompin' Tom - Bud The Spud
TTITLE6=Johnny Cash - Daddy Sang Bass
TTITLE7=Willie Nelson - Whiskey River
TTITLE8=Merle Haggard - I Think I'll Just Stay Here And Drink
TTITLE9=Conway Twitty - You've Never Been This Far Before
TTITLE10=Don Williams - Where Are You
TTITLE11=Waylon Jennings and Willie Nelson - Good Hearted Woman
TTITLE12=Alabama - Roll On (Eighteen Wheeler)
TTITLE13=Garth Brooks - Friends in Low Places (Long version)
EXTD=
EXTT0=
EXTT1=
EXTT2=
EXTT3=
EXTT4=
EXTT5=
EXTT6=
EXTT7=
EXTT8=
EXTT9=
EXTT10=
EXTT11=
EXTT12=
EXTT13=
PLAYORDER=
